HIERARCHY
ROOT Hips
{
  OFFSET 0.0 0.0 0.0
  CHANNELS 6 XPOSITION YPOSITION ZPOSITION ZROTATION XROTATION YROTATION 
  JOINT LeftUpLeg
  {
    OFFSET 0.089458 -0.0866707 0.00101652
    CHANNELS 3 ZROTATION XROTATION YROTATION 
    JOINT LeftLeg
    {
      OFFSET 0.0 -0.444227 0.013727
      CHANNELS 3 ZROTATION XROTATION YROTATION 
      JOINT LeftFoot
      {
        OFFSET -0.00253549 -0.420924 -0.0146059
        CHANNELS 3 ZROTATION XROTATION YROTATION 
        End Site
        {
          OFFSET -0.0004 -0.0441509 0.084991
        }
      }
    }
  }
  JOINT Spine
  {
    OFFSET 0.0 0.118905 0.0
    CHANNELS 3 ZROTATION XROTATION YROTATION 
    JOINT Spine1
    {
      OFFSET 0.0 0.256574 0.00127663
      CHANNELS 3 ZROTATION XROTATION YROTATION 
      End Site
      {
        OFFSET -0.0029 0.2150836 0.02525291
      }
      JOINT RightArm
      {
        OFFSET -0.162727 -0.05365632 0.00102123
        CHANNELS 3 ZROTATION XROTATION YROTATION 
        JOINT RightForeArm
        {
          OFFSET -0.26364 0.00099144 -0.0142434
          CHANNELS 3 ZROTATION XROTATION YROTATION 
          End Site
          {
            OFFSET -0.220324 0.00085362 0.0102216
          }
        }
      }
      JOINT LeftArm
      {
        OFFSET 0.162727 -0.0536563199 0.00102123
        CHANNELS 3 ZROTATION XROTATION YROTATION 
        JOINT LeftForeArm
        {
          OFFSET 0.262597 0.00099144 -0.0142434
          CHANNELS 3 ZROTATION XROTATION YROTATION 
          End Site
          {
            OFFSET 0.220902 0.00085362 0.0102216
          }
        }
      }
    }
  }
  JOINT RightUpLeg
  {
    OFFSET -0.089458 -0.0866707 0.00101652
    CHANNELS 3 ZROTATION XROTATION YROTATION 
    JOINT RightLeg
    {
      OFFSET 0.0 -0.444227 0.013727
      CHANNELS 3 ZROTATION XROTATION YROTATION 
      JOINT RightFoot
      {
        OFFSET 0.00253549 -0.420924 -0.0146059
        CHANNELS 3 ZROTATION XROTATION YROTATION 
        End Site
        {
          OFFSET 0.0004 -0.0441509 0.084991
        }
      }
    }
  }
}
MOTION
Frames: 16
Frame Time: 0.033333
0.910734646085 0.921441321036 -0.266969453667 -12.2682064947 -19.4444454915 -111.330471547 -14.1764845092 -15.731097036 1.86478550427 4.05713748963 35.3388250298 23.8041723142 14.3238108358 -24.9105792899 0.979191287339 -5.9768646087 10.9393470879 3.74694914423 -5.66589634107 -0.0786394630502 4.30885471998 76.5612501426 -37.4262674439 -8.16071941184 29.0533912574 58.3557497402 -23.5374517195 -66.6548598837 -24.672084452 13.6660243451 -11.8240563685 46.9820743381 -0.900387339459 -9.91088110835 14.3832411656 -0.666146695565 -4.21573192084 44.9753442693 -2.2457775116 14.8012333748 -35.4984704563 -4.99740096757 
0.887872805672 0.914533390029 -0.288480467076 -13.4821735819 -20.7064954029 -114.66897239 -14.5003806174 -13.3398375623 2.9970304453 3.98069273178 35.1397386758 23.3881693975 13.713056174 -26.8000964823 1.42976755438 -6.96779229547 11.6145625138 3.70786125227 -5.05774227379 -0.302549232382 3.78898981234 74.92807678 -37.2356436943 -10.6148174797 28.7575279531 58.5367565834 -23.0888824609 -67.2555272098 -23.1472993613 12.4834880809 -10.3381717664 45.2346865521 -3.29186751365 -10.3632394144 8.20823447658 0.669812639519 -6.71348727719 55.3254133715 -1.69719720803 11.934252933 -30.78368991 -6.09097188341 
0.868349860574 0.905082753758 -0.312908609953 -14.7618009852 -21.5527695015 -117.615884828 -14.3789483917 -10.5819352415 4.0341982993 3.76848942644 34.4711177976 22.8969217018 12.8991503419 -28.8367718078 1.81282270573 -7.68638753342 12.3889796072 3.35310741664 -4.14189544147 -0.360082530442 2.96548436284 73.6048027604 -36.3788545196 -12.3541251518 26.5185577922 57.8506162699 -19.8870656554 -67.9570286187 -20.978468413 10.6676028891 -8.8254257379 43.2403430315 -5.80939050468 -10.1113463067 2.21597398116 1.33914076249 -9.82370142756 63.9395933112 -0.239913516207 10.2616531571 -29.8825318264 -6.34933019207 
0.852109150179 0.895701527427 -0.340858554298 -15.9704422324 -22.233029022 -119.770194794 -13.9489470023 -7.56136433576 4.8561859527 3.38921734612 33.3199952809 22.380935061 12.1143820969 -30.9866899623 2.14485719775 -8.14536343904 13.1168472538 2.79987041816 -3.06561643018 -0.31455718519 1.98230808701 72.7169942815 -34.8267350118 -13.3952158823 22.9738825658 55.9826858904 -14.8655788795 -68.5937456834 -18.4197156254 8.46539024505 -7.19903731444 41.0274334574 -8.47978743005 -9.4558812266 -3.54498087736 1.55934670167 -13.2066992461 70.2902622204 1.67535138158 9.26189104757 -30.6934767714 -6.22788345221 
0.838694469603 0.886128781519 -0.372292570672 -17.0585528389 -23.0557304302 -121.043820169 -13.3656787292 -4.48229456735 5.48103556364 2.8684026153 31.7514389229 21.7673620923 11.1882443039 -32.9587260852 2.37935317332 -8.49993819565 13.7854715471 2.19317587693 -1.91368176132 -0.401623127325 0.985487014206 72.3846304463 -32.4411514253 -13.7277265666 19.2075318424 53.0003862422 -9.45651387287 -69.05433949 -15.3314268092 6.29008811941 -5.25161463206 37.9933097488 -11.6774156221 -8.56062954907 -9.13331615154 1.67601252255 -15.9149828039 74.1969596709 3.12568965148 8.2523515222 -31.3999710486 -5.94457232808 
0.827155889089 0.875660260895 -0.406804566748 -18.0614892789 -24.0260697924 -122.20140063 -12.6501583571 -1.42619792677 6.04373429511 2.31335326881 29.9505536803 21.0532299561 9.99577609086 -34.8295012384 2.50083192969 -8.6445811117 14.4863189654 1.62332935249 -0.769759437974 -0.71635520271 0.10374415685 72.5065220022 -29.7418538351 -13.3975979108 16.0988839398 49.6988264767 -4.83945455056 -69.232846484 -11.8817782971 4.30178419353 -3.16753224411 34.1538008691 -15.3653762644 -7.39953239488 -14.3649260133 1.88142619297 -16.4007868388 75.6143263765 2.73406602782 7.42238279275 -32.10932376 -5.56298630773 
0.816064665888 0.864626500887 -0.442784657632 -18.8083602194 -24.8731259476 -126.262112016 -11.9026530628 1.48123815242 6.53449448603 1.81764652683 28.2508235393 20.4022412112 8.67100199096 -36.8064790031 2.51511065359 -8.56143551139 15.2043716302 1.1509766281 0.275209772723 -1.06625485492 -0.590492585471 72.8719644436 -27.3733764574 -12.4757699672 13.83653148 46.6929387701 -1.30402334488 -69.0611423585 -9.35086706811 2.37435923782 -1.32639989837 30.9788181693 -19.1484609513 -6.11681689234 -18.9728892312 2.15389908755 -13.9182598161 74.6255267205 -0.358054364465 7.41624757533 -33.3948643995 -5.10104183115 
0.805283123575 0.856048559554 -0.47835895624 -17.4802709164 -25.8809408502 -135.722292846 -11.2835920372 4.14622193943 6.81735652522 1.43192194546 26.7368882041 19.8169964522 7.50043477949 -38.7064190642 2.46074490912 -8.3873485036 15.8020627015 0.730425712566 1.22705447673 -1.24292762292 -1.11756142169 73.3567712709 -25.4294072894 -11.0830021879 12.2662462304 43.9794309714 1.38666703301 -68.6510851214 -8.92857013211 0.362540277966 0.158033528602 29.8615870513 -22.8010753647 -5.03012653831 -22.8165286677 2.2184379719 -9.79492669436 71.4727455506 -5.13857969705 8.01388229752 -34.8992033189 -4.65088156531 
0.794379046625 0.853378404057 -0.515030448622 -14.3646750038 -28.5772690156 -145.982753282 -10.8080828049 6.60986519663 6.88338951346 1.20223506339 25.2034356034 19.1502794892 6.60460595097 -40.2970130275 2.39419517439 -8.05647108831 16.2203964202 0.271386440933 2.04994873102 -1.23526756576 -1.49772356104 73.949385804 -23.7142238454 -9.42295886103 11.1054333829 41.5184796625 3.55380697587 -68.2924387183 -9.63247747514 -1.80204317311 1.41461147134 29.955379209 -26.1921362216 -4.24083115849 -25.9016551064 2.22346050882 -5.06327131192 66.5383163659 -10.4182130457 8.07455572169 -36.0561485719 -4.57049834963 
0.783021056882 0.856012482921 -0.555289242819 -11.2271934576 -33.1017843973 -152.736977088 -10.4554657513 8.93494440615 6.83084444129 1.06909258507 23.6968000329 18.571111891 5.82547730773 -41.8730791785 2.33470636115 -7.44302277065 16.5177367529 -0.141721142553 2.54685715941 -1.08725491185 -1.68673378511 74.6258135885 -22.0453661595 -7.62809186885 10.1349027754 39.4368326638 5.37904803273 -68.1300714614 -10.0508572977 -4.13210778039 2.44264704226 29.9776387955 -29.0517622573 -3.58618655485 -28.1977717525 2.46227081607 -0.838792319998 60.1643633418 -14.3909422038 7.52279852638 -36.914430143 -4.96886699854 
0.771070951481 0.859351767378 -0.598933767571 -8.15683559552 -38.5166934845 -156.796062889 -10.284503555 11.1904436248 6.77234771303 0.932092330535 22.4372346027 18.2052271949 4.94165467111 -43.7567838799 2.25141711342 -6.66931302874 16.6959432185 -0.419522411777 2.65375580978 -0.745679179169 -1.68840333948 75.2603176718 -20.2857455048 -5.73038826788 9.30821509807 37.7629206379 6.93196411129 -68.1536492744 -10.0168873518 -6.54258954086 3.13971523149 29.8170678783 -31.1511540874 -3.07462886479 -29.5335467258 2.7171085891 2.07426463135 52.6474157263 -16.0876824295 7.26824420621 -37.7520025805 -5.49322062112 
0.75861123334 0.858524015714 -0.645195022835 -5.2312000504 -44.2820425025 -158.742844387 -10.2679821812 13.4394661166 6.73270956395 0.75769604324 21.3198976168 17.8305435076 3.86213217373 -45.654019186 2.07984382869 -5.93764395494 16.6241118266 -0.621644064419 2.60035077411 -0.153945300198 -1.63330996641 75.7548438583 -18.3309948832 -3.82483123001 8.59933537732 36.3080220428 8.30072804454 -68.3072533986 -9.47057296351 -8.86491703791 3.44460633831 29.4742265329 -32.3376877198 -2.86965104581 -29.848865824 2.4388210691 3.72448550582 44.2490526888 -16.4037374805 7.2596364603 -38.5405718258 -5.90567269321 
0.745990092869 0.847453289897 -0.692317497553 -1.43261403572 -49.4124981165 -158.211974764 -9.10125951244 14.7213679729 7.16487356199 0.681853302531 22.8020111006 17.1625014879 1.29943057627 -45.6574650165 1.39761422542 -4.01483599367 16.3882124606 -0.820601445165 2.13903958412 0.132938172951 -1.42424684054 75.8913793398 -17.8036547604 -2.21600557078 8.46335741 36.1224970295 8.12244473928 -68.8885776291 -10.9929401672 -8.83925516343 3.27613097125 31.2889429086 -32.1244594592 -1.63545219121 -29.9176731497 2.15621196035 4.25906093338 40.5702410849 -15.7983402484 6.15221007885 -38.0032989005 -6.32042013574 
0.734652114051 0.822624275038 -0.738051430036 3.89880132495 -53.8732468521 -155.266988439 -6.50532829761 13.9841327218 7.91616961125 0.888950027612 28.6478556056 15.903957171 -1.93722819816 -42.1001932137 0.410496610274 -1.35829325326 16.181810974 -1.05748734662 1.61101110632 -0.046312454518 -1.17601236634 75.8885926226 -18.555820805 -0.699927263735 8.80570015158 36.8584806484 6.55212533871 -69.5779896031 -14.2678587799 -6.05411660953 2.96980168273 34.6130115625 -31.1691892019 0.675715737231 -29.8960658462 2.57741521232 4.3058865759 42.0905797224 -14.9201811192 4.24018741316 -37.2614003377 -6.54005980954 
0.725921159791 0.786433198737 -0.781971833978 10.3588740698 -58.4746018619 -149.882285864 -3.62781485029 10.9744602367 7.56925064293 1.44542757732 37.6107884194 14.337022983 -3.24688538188 -35.1224309765 -0.177066397673 0.421882428898 16.0236237928 -1.4348215742 1.78387945895 -0.30431721084 -1.2229031091 76.0469232378 -19.0066713468 0.76200989467 8.91801065965 36.8993183494 5.6887253946 -69.7660793525 -15.7224500165 -2.77745672551 2.79847876712 36.3949805962 -30.5387593264 2.62081594185 -29.3649981477 3.06407408809 4.55545400421 43.6112052279 -15.0921260089 2.48925390527 -38.3401774907 -6.40521479985 
0.718682784218 0.739512966524 -0.823656716113 18.968948212 -63.0229136227 -141.184777616 -0.977010109116 6.10189164834 5.74824280925 2.49998071737 48.1512934409 13.0250887849 -3.07459279285 -27.0668751335 -0.480166674242 2.0535614742 15.9990897534 -1.92390442008 2.17395465738 -0.54532395752 -1.35389749292 76.2883089532 -19.2670415731 1.74990705852 8.69136107733 36.01401655 6.17803288966 -69.7353161805 -15.2212575654 -0.0173459607559 2.54175692909 37.0894981367 -30.0249788366 4.24915502465 -28.46811747 3.05240983253 4.88621103741 44.8693943749 -16.3068188038 1.11815660864 -40.3274107844 -6.12731660064 
